<mxfile host="app.diagrams.net" modified="2022-11-02T09:25:43.262Z" agent="5.0 (Windows NT 10.0; Win64; x64) AppleWebKit/537.36 (KHTML, like Gecko) Chrome/106.0.0.0 Safari/537.36" etag="68qjTbBDrWUOPjkHO2iG" version="20.5.1" type="github" pages="4">
  <diagram id="prtHgNgQTEPvFCAcTncT" name="活动图">
    <mxGraphModel dx="1422" dy="794" grid="1" gridSize="10" guides="1" tooltips="1" connect="1" arrows="1" fold="1" page="1" pageScale="1" pageWidth="827" pageHeight="1169" math="0" shadow="0">
      <root>
        <mxCell id="0" />
        <mxCell id="1" parent="0" />
        <mxCell id="dNxyNK7c78bLwvsdeMH5-19" value="Pool" style="swimlane;html=1;childLayout=stackLayout;resizeParent=1;resizeParentMax=0;horizontal=0;startSize=20;horizontalStack=0;" parent="1" vertex="1">
          <mxGeometry x="120" y="120" width="450" height="360" as="geometry" />
        </mxCell>
        <mxCell id="dNxyNK7c78bLwvsdeMH5-27" value="" style="edgeStyle=orthogonalEdgeStyle;rounded=0;orthogonalLoop=1;jettySize=auto;html=1;dashed=1;endArrow=none;endFill=0;" parent="dNxyNK7c78bLwvsdeMH5-19" source="dNxyNK7c78bLwvsdeMH5-24" target="dNxyNK7c78bLwvsdeMH5-26" edge="1">
          <mxGeometry relative="1" as="geometry" />
        </mxCell>
        <mxCell id="dNxyNK7c78bLwvsdeMH5-31" style="edgeStyle=orthogonalEdgeStyle;rounded=0;orthogonalLoop=1;jettySize=auto;html=1;endArrow=classic;endFill=1;" parent="dNxyNK7c78bLwvsdeMH5-19" source="dNxyNK7c78bLwvsdeMH5-28" target="dNxyNK7c78bLwvsdeMH5-30" edge="1">
          <mxGeometry relative="1" as="geometry" />
        </mxCell>
        <mxCell id="dNxyNK7c78bLwvsdeMH5-35" style="edgeStyle=orthogonalEdgeStyle;rounded=0;orthogonalLoop=1;jettySize=auto;html=1;endArrow=classic;endFill=1;" parent="dNxyNK7c78bLwvsdeMH5-19" source="dNxyNK7c78bLwvsdeMH5-28" target="dNxyNK7c78bLwvsdeMH5-34" edge="1">
          <mxGeometry relative="1" as="geometry" />
        </mxCell>
        <mxCell id="dNxyNK7c78bLwvsdeMH5-38" style="edgeStyle=orthogonalEdgeStyle;rounded=0;orthogonalLoop=1;jettySize=auto;html=1;endArrow=classic;endFill=1;" parent="dNxyNK7c78bLwvsdeMH5-19" source="dNxyNK7c78bLwvsdeMH5-26" target="dNxyNK7c78bLwvsdeMH5-36" edge="1">
          <mxGeometry relative="1" as="geometry">
            <Array as="points">
              <mxPoint x="180" y="340" />
              <mxPoint x="400" y="340" />
            </Array>
          </mxGeometry>
        </mxCell>
        <mxCell id="dNxyNK7c78bLwvsdeMH5-20" value="Lane 1" style="swimlane;html=1;startSize=20;horizontal=0;" parent="dNxyNK7c78bLwvsdeMH5-19" vertex="1">
          <mxGeometry x="20" width="430" height="120" as="geometry" />
        </mxCell>
        <mxCell id="dNxyNK7c78bLwvsdeMH5-25" value="" style="edgeStyle=orthogonalEdgeStyle;rounded=0;orthogonalLoop=1;jettySize=auto;html=1;" parent="dNxyNK7c78bLwvsdeMH5-20" source="dNxyNK7c78bLwvsdeMH5-23" target="dNxyNK7c78bLwvsdeMH5-24" edge="1">
          <mxGeometry relative="1" as="geometry" />
        </mxCell>
        <mxCell id="dNxyNK7c78bLwvsdeMH5-23" value="" style="ellipse;whiteSpace=wrap;html=1;" parent="dNxyNK7c78bLwvsdeMH5-20" vertex="1">
          <mxGeometry x="40" y="40" width="40" height="40" as="geometry" />
        </mxCell>
        <mxCell id="dNxyNK7c78bLwvsdeMH5-24" value="" style="rounded=0;whiteSpace=wrap;html=1;fontFamily=Helvetica;fontSize=12;fontColor=#000000;align=center;" parent="dNxyNK7c78bLwvsdeMH5-20" vertex="1">
          <mxGeometry x="120" y="30" width="80" height="60" as="geometry" />
        </mxCell>
        <mxCell id="dNxyNK7c78bLwvsdeMH5-33" value="" style="edgeStyle=orthogonalEdgeStyle;rounded=0;orthogonalLoop=1;jettySize=auto;html=1;endArrow=classic;endFill=1;" parent="dNxyNK7c78bLwvsdeMH5-20" source="dNxyNK7c78bLwvsdeMH5-30" target="dNxyNK7c78bLwvsdeMH5-32" edge="1">
          <mxGeometry relative="1" as="geometry" />
        </mxCell>
        <mxCell id="dNxyNK7c78bLwvsdeMH5-30" value="" style="rounded=0;whiteSpace=wrap;html=1;fontFamily=Helvetica;fontSize=12;fontColor=#000000;align=center;" parent="dNxyNK7c78bLwvsdeMH5-20" vertex="1">
          <mxGeometry x="240" y="30" width="80" height="60" as="geometry" />
        </mxCell>
        <mxCell id="dNxyNK7c78bLwvsdeMH5-32" value="" style="ellipse;whiteSpace=wrap;html=1;" parent="dNxyNK7c78bLwvsdeMH5-20" vertex="1">
          <mxGeometry x="360" y="40" width="40" height="40" as="geometry" />
        </mxCell>
        <mxCell id="dNxyNK7c78bLwvsdeMH5-21" value="Lane 2" style="swimlane;html=1;startSize=20;horizontal=0;" parent="dNxyNK7c78bLwvsdeMH5-19" vertex="1">
          <mxGeometry x="20" y="120" width="430" height="120" as="geometry" />
        </mxCell>
        <mxCell id="dNxyNK7c78bLwvsdeMH5-29" value="" style="edgeStyle=orthogonalEdgeStyle;rounded=0;orthogonalLoop=1;jettySize=auto;html=1;endArrow=classic;endFill=1;" parent="dNxyNK7c78bLwvsdeMH5-21" source="dNxyNK7c78bLwvsdeMH5-26" target="dNxyNK7c78bLwvsdeMH5-28" edge="1">
          <mxGeometry relative="1" as="geometry" />
        </mxCell>
        <mxCell id="dNxyNK7c78bLwvsdeMH5-26" value="" style="rounded=0;whiteSpace=wrap;html=1;fontFamily=Helvetica;fontSize=12;fontColor=#000000;align=center;" parent="dNxyNK7c78bLwvsdeMH5-21" vertex="1">
          <mxGeometry x="120" y="30" width="80" height="60" as="geometry" />
        </mxCell>
        <mxCell id="dNxyNK7c78bLwvsdeMH5-28" value="" style="rhombus;whiteSpace=wrap;html=1;fontFamily=Helvetica;fontSize=12;fontColor=#000000;align=center;" parent="dNxyNK7c78bLwvsdeMH5-21" vertex="1">
          <mxGeometry x="260" y="40" width="40" height="40" as="geometry" />
        </mxCell>
        <mxCell id="dNxyNK7c78bLwvsdeMH5-22" value="Lane 3" style="swimlane;html=1;startSize=20;horizontal=0;" parent="dNxyNK7c78bLwvsdeMH5-19" vertex="1">
          <mxGeometry x="20" y="240" width="430" height="120" as="geometry" />
        </mxCell>
        <mxCell id="dNxyNK7c78bLwvsdeMH5-37" value="" style="edgeStyle=orthogonalEdgeStyle;rounded=0;orthogonalLoop=1;jettySize=auto;html=1;endArrow=classic;endFill=1;" parent="dNxyNK7c78bLwvsdeMH5-22" source="dNxyNK7c78bLwvsdeMH5-34" target="dNxyNK7c78bLwvsdeMH5-36" edge="1">
          <mxGeometry relative="1" as="geometry" />
        </mxCell>
        <mxCell id="dNxyNK7c78bLwvsdeMH5-34" value="" style="rounded=0;whiteSpace=wrap;html=1;fontFamily=Helvetica;fontSize=12;fontColor=#000000;align=center;" parent="dNxyNK7c78bLwvsdeMH5-22" vertex="1">
          <mxGeometry x="240" y="20" width="80" height="60" as="geometry" />
        </mxCell>
        <mxCell id="dNxyNK7c78bLwvsdeMH5-36" value="" style="rhombus;whiteSpace=wrap;html=1;fontFamily=Helvetica;fontSize=12;fontColor=#000000;align=center;" parent="dNxyNK7c78bLwvsdeMH5-22" vertex="1">
          <mxGeometry x="360" y="30" width="40" height="40" as="geometry" />
        </mxCell>
      </root>
    </mxGraphModel>
  </diagram>
  <diagram id="AbU_TvN7KhEgsN69A9P9" name="组件图">
    <mxGraphModel dx="1422" dy="794" grid="1" gridSize="10" guides="1" tooltips="1" connect="1" arrows="1" fold="1" page="1" pageScale="1" pageWidth="827" pageHeight="1169" math="0" shadow="0">
      <root>
        <mxCell id="0" />
        <mxCell id="1" parent="0" />
        <mxCell id="eq9gx82oN6UVAES31VSA-14" style="edgeStyle=orthogonalEdgeStyle;rounded=0;orthogonalLoop=1;jettySize=auto;html=1;entryX=1;entryY=0.5;entryDx=0;entryDy=0;entryPerimeter=0;" edge="1" parent="1" source="eq9gx82oN6UVAES31VSA-2" target="eq9gx82oN6UVAES31VSA-12">
          <mxGeometry relative="1" as="geometry" />
        </mxCell>
        <mxCell id="eq9gx82oN6UVAES31VSA-2" value="«监控报警»&lt;br&gt;&lt;b&gt;mas&lt;/b&gt;" style="html=1;dropTarget=0;" vertex="1" parent="1">
          <mxGeometry x="130" y="315" width="180" height="90" as="geometry" />
        </mxCell>
        <mxCell id="eq9gx82oN6UVAES31VSA-3" value="" style="shape=module;jettyWidth=8;jettyHeight=4;" vertex="1" parent="eq9gx82oN6UVAES31VSA-2">
          <mxGeometry x="1" width="20" height="20" relative="1" as="geometry">
            <mxPoint x="-27" y="7" as="offset" />
          </mxGeometry>
        </mxCell>
        <mxCell id="eq9gx82oN6UVAES31VSA-13" style="edgeStyle=orthogonalEdgeStyle;rounded=0;orthogonalLoop=1;jettySize=auto;html=1;entryX=0;entryY=0.5;entryDx=0;entryDy=0;entryPerimeter=0;" edge="1" parent="1" source="eq9gx82oN6UVAES31VSA-5" target="eq9gx82oN6UVAES31VSA-12">
          <mxGeometry relative="1" as="geometry" />
        </mxCell>
        <mxCell id="eq9gx82oN6UVAES31VSA-5" value="&lt;p style=&quot;margin:0px;margin-top:6px;text-align:center;&quot;&gt;&lt;b&gt;问题反馈系统系统&lt;/b&gt;&lt;/p&gt;&lt;hr&gt;&lt;p style=&quot;margin:0px;margin-left:8px;&quot;&gt;+ Attribute1: Type&lt;br&gt;+ Attribute2: Type&lt;/p&gt;" style="align=left;overflow=fill;html=1;dropTarget=0;" vertex="1" parent="1">
          <mxGeometry x="530" y="315" width="180" height="90" as="geometry" />
        </mxCell>
        <mxCell id="eq9gx82oN6UVAES31VSA-6" value="" style="shape=component;jettyWidth=8;jettyHeight=4;" vertex="1" parent="eq9gx82oN6UVAES31VSA-5">
          <mxGeometry x="1" width="20" height="20" relative="1" as="geometry">
            <mxPoint x="-24" y="4" as="offset" />
          </mxGeometry>
        </mxCell>
        <mxCell id="eq9gx82oN6UVAES31VSA-12" value="" style="shape=providedRequiredInterface;html=1;verticalLabelPosition=bottom;sketch=0;rotation=-180;" vertex="1" parent="1">
          <mxGeometry x="404" y="350" width="20" height="20" as="geometry" />
        </mxCell>
        <mxCell id="eq9gx82oN6UVAES31VSA-15" style="edgeStyle=orthogonalEdgeStyle;rounded=0;orthogonalLoop=1;jettySize=auto;html=1;entryX=1;entryY=0.5;entryDx=0;entryDy=0;entryPerimeter=0;" edge="1" parent="1" source="eq9gx82oN6UVAES31VSA-16" target="eq9gx82oN6UVAES31VSA-21">
          <mxGeometry relative="1" as="geometry" />
        </mxCell>
        <mxCell id="eq9gx82oN6UVAES31VSA-16" value="«监控报警»&lt;br&gt;&lt;b&gt;mas&lt;/b&gt;" style="html=1;dropTarget=0;" vertex="1" parent="1">
          <mxGeometry x="90" y="490" width="180" height="90" as="geometry" />
        </mxCell>
        <mxCell id="eq9gx82oN6UVAES31VSA-17" value="" style="shape=module;jettyWidth=8;jettyHeight=4;" vertex="1" parent="eq9gx82oN6UVAES31VSA-16">
          <mxGeometry x="1" width="20" height="20" relative="1" as="geometry">
            <mxPoint x="-27" y="7" as="offset" />
          </mxGeometry>
        </mxCell>
        <mxCell id="eq9gx82oN6UVAES31VSA-22" value="生成钉钉卡片" style="edgeStyle=orthogonalEdgeStyle;rounded=0;orthogonalLoop=1;jettySize=auto;html=1;entryX=0;entryY=0.5;entryDx=0;entryDy=0;entryPerimeter=0;" edge="1" parent="1" source="eq9gx82oN6UVAES31VSA-19" target="eq9gx82oN6UVAES31VSA-21">
          <mxGeometry relative="1" as="geometry" />
        </mxCell>
        <mxCell id="eq9gx82oN6UVAES31VSA-19" value="&lt;p style=&quot;margin:0px;margin-top:6px;text-align:center;&quot;&gt;&lt;b&gt;问题反馈系统系统&lt;/b&gt;&lt;/p&gt;&lt;hr&gt;&lt;p style=&quot;margin:0px;margin-left:8px;&quot;&gt;&lt;br&gt;&lt;/p&gt;" style="align=left;overflow=fill;html=1;dropTarget=0;" vertex="1" parent="1">
          <mxGeometry x="530" y="490" width="180" height="90" as="geometry" />
        </mxCell>
        <mxCell id="eq9gx82oN6UVAES31VSA-20" value="" style="shape=component;jettyWidth=8;jettyHeight=4;" vertex="1" parent="eq9gx82oN6UVAES31VSA-19">
          <mxGeometry x="1" width="20" height="20" relative="1" as="geometry">
            <mxPoint x="-24" y="4" as="offset" />
          </mxGeometry>
        </mxCell>
        <mxCell id="eq9gx82oN6UVAES31VSA-21" value="" style="shape=providedRequiredInterface;html=1;verticalLabelPosition=bottom;sketch=0;rotation=-180;" vertex="1" parent="1">
          <mxGeometry x="364" y="525" width="20" height="20" as="geometry" />
        </mxCell>
      </root>
    </mxGraphModel>
  </diagram>
  <diagram id="JHnh1hLDAn8rRue0FlNj" name="时序图">
    <mxGraphModel dx="1422" dy="794" grid="1" gridSize="10" guides="1" tooltips="1" connect="1" arrows="1" fold="1" page="1" pageScale="1" pageWidth="827" pageHeight="1169" math="0" shadow="0">
      <root>
        <mxCell id="0" />
        <mxCell id="1" parent="0" />
        <mxCell id="bC3ebh94NUWLR8tTx_zD-7" value="" style="shape=umlLifeline;participant=umlActor;perimeter=lifelinePerimeter;whiteSpace=wrap;html=1;container=1;collapsible=0;recursiveResize=0;verticalAlign=top;spacingTop=36;outlineConnect=0;" vertex="1" parent="1">
          <mxGeometry x="80" y="82.5" width="50" height="505" as="geometry" />
        </mxCell>
        <mxCell id="bC3ebh94NUWLR8tTx_zD-8" value=":钉钉群" style="shape=umlLifeline;perimeter=lifelinePerimeter;whiteSpace=wrap;html=1;container=1;collapsible=0;recursiveResize=0;outlineConnect=0;" vertex="1" parent="1">
          <mxGeometry x="250" y="80" width="100" height="510" as="geometry" />
        </mxCell>
        <mxCell id="sClH0AP_tNrb3wL9btBh-17" value="" style="html=1;points=[];perimeter=orthogonalPerimeter;" vertex="1" parent="bC3ebh94NUWLR8tTx_zD-8">
          <mxGeometry x="45" y="70" width="10" height="110" as="geometry" />
        </mxCell>
        <mxCell id="sClH0AP_tNrb3wL9btBh-21" value="" style="html=1;points=[];perimeter=orthogonalPerimeter;fillColor=#FFFFFF;" vertex="1" parent="bC3ebh94NUWLR8tTx_zD-8">
          <mxGeometry x="45" y="345" width="10" height="95" as="geometry" />
        </mxCell>
        <mxCell id="bC3ebh94NUWLR8tTx_zD-9" value=":问题反馈前端" style="shape=umlLifeline;perimeter=lifelinePerimeter;whiteSpace=wrap;html=1;container=1;collapsible=0;recursiveResize=0;outlineConnect=0;" vertex="1" parent="1">
          <mxGeometry x="414" y="80" width="100" height="500" as="geometry" />
        </mxCell>
        <mxCell id="sClH0AP_tNrb3wL9btBh-10" value="返回场景的页面配置" style="html=1;verticalAlign=bottom;endArrow=open;dashed=1;endSize=8;rounded=0;" edge="1" parent="bC3ebh94NUWLR8tTx_zD-9" source="sClH0AP_tNrb3wL9btBh-5">
          <mxGeometry relative="1" as="geometry">
            <mxPoint x="126" y="310" as="sourcePoint" />
            <mxPoint x="56" y="310" as="targetPoint" />
          </mxGeometry>
        </mxCell>
        <mxCell id="sClH0AP_tNrb3wL9btBh-18" value="" style="html=1;points=[];perimeter=orthogonalPerimeter;fillColor=#FFFFFF;" vertex="1" parent="bC3ebh94NUWLR8tTx_zD-9">
          <mxGeometry x="45" y="160" width="10" height="80" as="geometry" />
        </mxCell>
        <mxCell id="sClH0AP_tNrb3wL9btBh-20" value="" style="html=1;points=[];perimeter=orthogonalPerimeter;fillColor=#FFFFFF;" vertex="1" parent="bC3ebh94NUWLR8tTx_zD-9">
          <mxGeometry x="45" y="290" width="10" height="95" as="geometry" />
        </mxCell>
        <mxCell id="UrJvHCDAVc0NGz06Tycd-1" value="Interaction1 heading" style="shape=umlFrame;tabWidth=110;tabHeight=30;tabPosition=left;html=1;boundedLbl=1;labelInHeader=1;width=140;height=30;" vertex="1" parent="1">
          <mxGeometry x="70" y="620" width="720" height="300" as="geometry" />
        </mxCell>
        <mxCell id="UrJvHCDAVc0NGz06Tycd-2" value="[constraint1]" style="text" vertex="1" parent="UrJvHCDAVc0NGz06Tycd-1">
          <mxGeometry width="100" height="20" relative="1" as="geometry">
            <mxPoint x="20" y="40" as="offset" />
          </mxGeometry>
        </mxCell>
        <mxCell id="UrJvHCDAVc0NGz06Tycd-3" value="[constraint2]" style="line;strokeWidth=1;dashed=1;labelPosition=center;verticalLabelPosition=bottom;align=left;verticalAlign=top;spacingLeft=20;spacingTop=15;" vertex="1" parent="UrJvHCDAVc0NGz06Tycd-1">
          <mxGeometry y="150" width="720" height="12" as="geometry" />
        </mxCell>
        <mxCell id="UrJvHCDAVc0NGz06Tycd-12" value="" style="shape=umlLifeline;participant=umlActor;perimeter=lifelinePerimeter;whiteSpace=wrap;html=1;container=1;collapsible=0;recursiveResize=0;verticalAlign=top;spacingTop=36;outlineConnect=0;" vertex="1" parent="1">
          <mxGeometry x="840" y="70" width="50" height="460" as="geometry" />
        </mxCell>
        <mxCell id="UrJvHCDAVc0NGz06Tycd-13" value=":钉钉（前端）" style="shape=umlLifeline;perimeter=lifelinePerimeter;whiteSpace=wrap;html=1;container=1;collapsible=0;recursiveResize=0;outlineConnect=0;" vertex="1" parent="1">
          <mxGeometry x="960" y="80" width="100" height="440" as="geometry" />
        </mxCell>
        <mxCell id="UrJvHCDAVc0NGz06Tycd-14" value="" style="html=1;points=[];perimeter=orthogonalPerimeter;" vertex="1" parent="UrJvHCDAVc0NGz06Tycd-13">
          <mxGeometry x="45" y="70" width="10" height="70" as="geometry" />
        </mxCell>
        <mxCell id="UrJvHCDAVc0NGz06Tycd-15" value="" style="html=1;points=[];perimeter=orthogonalPerimeter;" vertex="1" parent="UrJvHCDAVc0NGz06Tycd-13">
          <mxGeometry x="45" y="210" width="10" height="70" as="geometry" />
        </mxCell>
        <mxCell id="UrJvHCDAVc0NGz06Tycd-16" value=":问题反馈系统后台" style="shape=umlLifeline;perimeter=lifelinePerimeter;whiteSpace=wrap;html=1;container=1;collapsible=0;recursiveResize=0;outlineConnect=0;" vertex="1" parent="1">
          <mxGeometry x="1124" y="80" width="100" height="450" as="geometry" />
        </mxCell>
        <mxCell id="UrJvHCDAVc0NGz06Tycd-17" value="" style="html=1;points=[];perimeter=orthogonalPerimeter;" vertex="1" parent="UrJvHCDAVc0NGz06Tycd-16">
          <mxGeometry x="45" y="60" width="10" height="360" as="geometry" />
        </mxCell>
        <mxCell id="UrJvHCDAVc0NGz06Tycd-18" value="反馈问题" style="html=1;verticalAlign=bottom;endArrow=block;rounded=0;" edge="1" parent="1" source="UrJvHCDAVc0NGz06Tycd-12" target="UrJvHCDAVc0NGz06Tycd-13">
          <mxGeometry width="80" relative="1" as="geometry">
            <mxPoint x="1080" y="310" as="sourcePoint" />
            <mxPoint x="1160" y="310" as="targetPoint" />
            <Array as="points">
              <mxPoint x="900" y="160" />
            </Array>
          </mxGeometry>
        </mxCell>
        <mxCell id="UrJvHCDAVc0NGz06Tycd-19" value="提交保存" style="html=1;verticalAlign=bottom;endArrow=block;rounded=0;" edge="1" parent="1" target="UrJvHCDAVc0NGz06Tycd-16">
          <mxGeometry x="-0.1402" y="5" width="80" relative="1" as="geometry">
            <mxPoint x="1020" y="200" as="sourcePoint" />
            <mxPoint x="1009.5" y="170" as="targetPoint" />
            <Array as="points">
              <mxPoint x="1110" y="200" />
            </Array>
            <mxPoint as="offset" />
          </mxGeometry>
        </mxCell>
        <mxCell id="UrJvHCDAVc0NGz06Tycd-20" value="通知问题提交成功" style="html=1;verticalAlign=bottom;endArrow=open;dashed=1;endSize=8;rounded=0;" edge="1" parent="1" source="UrJvHCDAVc0NGz06Tycd-16">
          <mxGeometry relative="1" as="geometry">
            <mxPoint x="1270" y="300" as="sourcePoint" />
            <mxPoint x="1010" y="305" as="targetPoint" />
          </mxGeometry>
        </mxCell>
        <mxCell id="UrJvHCDAVc0NGz06Tycd-21" value="return" style="html=1;verticalAlign=bottom;endArrow=open;endSize=8;rounded=0;exitX=0;exitY=0.843;exitDx=0;exitDy=0;exitPerimeter=0;" edge="1" parent="1" source="UrJvHCDAVc0NGz06Tycd-15" target="UrJvHCDAVc0NGz06Tycd-12">
          <mxGeometry relative="1" as="geometry">
            <mxPoint x="1000" y="350" as="sourcePoint" />
            <mxPoint x="1190" y="300" as="targetPoint" />
            <Array as="points">
              <mxPoint x="930" y="350" />
            </Array>
          </mxGeometry>
        </mxCell>
        <mxCell id="sClH0AP_tNrb3wL9btBh-5" value=":问题反馈后台服务" style="shape=umlLifeline;perimeter=lifelinePerimeter;whiteSpace=wrap;html=1;container=1;collapsible=0;recursiveResize=0;outlineConnect=0;" vertex="1" parent="1">
          <mxGeometry x="590" y="85" width="100" height="500" as="geometry" />
        </mxCell>
        <mxCell id="sClH0AP_tNrb3wL9btBh-19" value="" style="html=1;points=[];perimeter=orthogonalPerimeter;fillColor=#FFFFFF;" vertex="1" parent="sClH0AP_tNrb3wL9btBh-5">
          <mxGeometry x="45" y="215" width="10" height="95" as="geometry" />
        </mxCell>
        <mxCell id="sClH0AP_tNrb3wL9btBh-9" value="读取场景页面配置" style="html=1;verticalAlign=bottom;endArrow=block;rounded=0;" edge="1" parent="1" target="sClH0AP_tNrb3wL9btBh-5">
          <mxGeometry width="80" relative="1" as="geometry">
            <mxPoint x="470" y="305" as="sourcePoint" />
            <mxPoint x="623.5" y="304.5" as="targetPoint" />
            <Array as="points">
              <mxPoint x="500" y="304.5" />
            </Array>
          </mxGeometry>
        </mxCell>
        <mxCell id="sClH0AP_tNrb3wL9btBh-7" value="请求打开问题反馈页面" style="html=1;verticalAlign=bottom;endArrow=block;rounded=0;exitX=0.9;exitY=0.918;exitDx=0;exitDy=0;exitPerimeter=0;" edge="1" parent="1" source="sClH0AP_tNrb3wL9btBh-17" target="bC3ebh94NUWLR8tTx_zD-9">
          <mxGeometry width="80" relative="1" as="geometry">
            <mxPoint x="310" y="250" as="sourcePoint" />
            <mxPoint x="460" y="250" as="targetPoint" />
            <Array as="points">
              <mxPoint x="340" y="250" />
            </Array>
          </mxGeometry>
        </mxCell>
        <mxCell id="sClH0AP_tNrb3wL9btBh-12" value="触发反馈问题菜单" style="html=1;verticalAlign=bottom;endArrow=block;rounded=0;" edge="1" parent="1" target="bC3ebh94NUWLR8tTx_zD-8">
          <mxGeometry width="80" relative="1" as="geometry">
            <mxPoint x="110" y="160" as="sourcePoint" />
            <mxPoint x="273.5" y="160" as="targetPoint" />
            <Array as="points">
              <mxPoint x="150" y="160" />
            </Array>
          </mxGeometry>
        </mxCell>
        <mxCell id="sClH0AP_tNrb3wL9btBh-13" value="展示反馈问题页面" style="html=1;verticalAlign=bottom;endArrow=open;endSize=8;rounded=0;" edge="1" parent="1" source="bC3ebh94NUWLR8tTx_zD-8">
          <mxGeometry relative="1" as="geometry">
            <mxPoint x="264" y="500" as="sourcePoint" />
            <mxPoint x="100" y="500" as="targetPoint" />
            <Array as="points">
              <mxPoint x="170.5" y="500" />
            </Array>
          </mxGeometry>
        </mxCell>
        <mxCell id="sClH0AP_tNrb3wL9btBh-23" value="返回反馈页面" style="html=1;verticalAlign=bottom;endArrow=open;dashed=1;endSize=8;rounded=0;" edge="1" parent="1">
          <mxGeometry relative="1" as="geometry">
            <mxPoint x="460" y="450" as="sourcePoint" />
            <mxPoint x="300" y="450" as="targetPoint" />
            <Array as="points">
              <mxPoint x="370.5" y="450" />
            </Array>
          </mxGeometry>
        </mxCell>
      </root>
    </mxGraphModel>
  </diagram>
  <diagram id="CTK6aJGpMCY7l2KlhHum" name="第 4 页">
    <mxGraphModel dx="1422" dy="794" grid="1" gridSize="10" guides="1" tooltips="1" connect="1" arrows="1" fold="1" page="1" pageScale="1" pageWidth="827" pageHeight="1169" math="0" shadow="0">
      <root>
        <mxCell id="0" />
        <mxCell id="1" parent="0" />
      </root>
    </mxGraphModel>
  </diagram>
</mxfile>
